Normalized EMG Linear Envelopes
nRows=175
nColumns=4

endheader
time	 med_gas_r	  soleus_r	 tib_ant_r	
3.9375	  0.002447	  0.013437	  0.001240	
4	  0.002359	  0.013876	  0.001206	
4.0625	  0.002282	  0.014357	  0.001191	
4.125	  0.002231	  0.014863	  0.001209	
4.1875	  0.002235	  0.015336	  0.001258	
4.25	  0.002325	  0.015717	  0.001304	
4.3125	  0.002485	  0.015970	  0.001302	
4.375	  0.002656	  0.016127	  0.001244	
4.4375	  0.002795	  0.016261	  0.001172	
4.5	  0.002886	  0.016399	  0.001137	
4.5625	  0.002918	  0.016501	  0.001143	
4.625	  0.002884	  0.016484	  0.001160	
4.6875	  0.002798	  0.016231	  0.001164	
4.75	  0.002697	  0.015642	  0.001157	
4.8125	  0.002616	  0.014715	  0.001151	
4.875	  0.002570	  0.013588	  0.001155	
4.9375	  0.002543	  0.012487	  0.001162	
5	  0.002510	  0.011573	  0.001167	
5.0625	  0.002454	  0.010883	  0.001188	
5.125	  0.002383	  0.010380	  0.001295	
5.1875	  0.002319	  0.010007	  0.001615	
5.25	  0.002283	  0.009704	  0.002244	
5.3125	  0.002277	  0.009463	  0.003038	
5.375	  0.002287	  0.009332	  0.003543	
5.4375	  0.002286	  0.009330	  0.003386	
5.5	  0.002255	  0.009370	  0.002706	
5.5625	  0.002187	  0.009304	  0.001949	
5.625	  0.002099	  0.009080	  0.001408	
5.6875	  0.002047	  0.008916	  0.001119	
5.75	  0.002140	  0.009409	  0.001011	
5.8125	  0.002533	  0.011466	  0.001020	
5.875	  0.003315	  0.015900	  0.001105	
5.9375	  0.004384	  0.022167	  0.001217	
6	  0.005509	  0.027456	  0.001300	
6.0625	  0.006576	  0.029053	  0.001334	
6.125	  0.007712	  0.028092	  0.001367	
6.1875	  0.009340	  0.028750	  0.001484	
6.25	  0.012087	  0.033738	  0.001740	
6.3125	  0.016089	  0.042098	  0.002127	
6.375	  0.020511	  0.050877	  0.002606	
6.4375	  0.024463	  0.058200	  0.003188	
6.5	  0.028139	  0.064743	  0.003925	
6.5625	  0.032874	  0.073761	  0.004866	
6.625	  0.040786	  0.090524	  0.006062	
6.6875	  0.053188	  0.117111	  0.007419	
6.75	  0.067606	  0.146016	  0.008529	
6.8125	  0.078499	  0.165486	  0.009057	
6.875	  0.083072	  0.172399	  0.009250	
6.9375	  0.084030	  0.173933	  0.009699	
7	  0.085616	  0.177546	  0.010626	
7.0625	  0.089887	  0.184875	  0.011613	
7.125	  0.096866	  0.194488	  0.012143	
7.1875	  0.106179	  0.206881	  0.012448	
7.25	  0.119627	  0.226556	  0.013711	
7.3125	  0.142352	  0.258471	  0.016934	
7.375	  0.178191	  0.301149	  0.021618	
7.4375	  0.222599	  0.345713	  0.026303	
7.5	  0.264170	  0.383819	  0.030351	
7.5625	  0.296717	  0.414503	  0.034224	
7.625	  0.324493	  0.441429	  0.038183	
7.6875	  0.352145	  0.464864	  0.041879	
7.75	  0.380099	  0.479635	  0.045363	
7.8125	  0.412730	  0.482209	  0.049623	
7.875	  0.457676	  0.475247	  0.055281	
7.9375	  0.514038	  0.462872	  0.061233	
8	  0.569429	  0.447216	  0.065704	
8.0625	  0.610410	  0.433098	  0.068385	
8.125	  0.635440	  0.431964	  0.070488	
8.1875	  0.654110	  0.454224	  0.072740	
8.25	  0.668565	  0.494396	  0.074311	
8.3125	  0.667320	  0.530681	  0.074371	
8.375	  0.646934	  0.545752	  0.073599	
8.4375	  0.623999	  0.542702	  0.073060	
8.5	  0.618903	  0.537461	  0.073075	
8.5625	  0.640070	  0.542042	  0.073982	
8.625	  0.680641	  0.556047	  0.075992	
8.6875	  0.720697	  0.568868	  0.077892	
8.75	  0.741331	  0.570908	  0.077881	
8.8125	  0.741420	  0.565206	  0.076075	
8.875	  0.731996	  0.564790	  0.074673	
8.9375	  0.719191	  0.579237	  0.075377	
9	  0.704008	  0.607550	  0.077929	
9.0625	  0.690257	  0.640341	  0.081023	
9.125	  0.681774	  0.666547	  0.083371	
9.1875	  0.677904	  0.682319	  0.084026	
9.25	  0.678558	  0.690873	  0.082402	
9.3125	  0.687754	  0.690734	  0.078631	
9.375	  0.705239	  0.673524	  0.074043	
9.4375	  0.721458	  0.636874	  0.070518	
9.5	  0.729427	  0.590486	  0.069335	
9.5625	  0.735743	  0.548360	  0.070928	
9.625	  0.751887	  0.519503	  0.074742	
9.6875	  0.774635	  0.503936	  0.078846	
9.75	  0.781838	  0.497449	  0.080766	
9.8125	  0.757630	  0.500830	  0.079432	
9.875	  0.714887	  0.516781	  0.075881	
9.9375	  0.680554	  0.537521	  0.072233	
10	  0.668885	  0.547996	  0.070551	
10.0625	  0.673808	  0.542382	  0.071447	
10.125	  0.678491	  0.527041	  0.073078	
10.1875	  0.672668	  0.509390	  0.072841	
10.25	  0.658560	  0.493355	  0.070050	
10.3125	  0.640359	  0.482399	  0.066033	
10.375	  0.619441	  0.478578	  0.062290	
10.4375	  0.599688	  0.480419	  0.059224	
10.5	  0.587987	  0.483768	  0.056401	
10.5625	  0.586208	  0.481752	  0.053794	
10.625	  0.586826	  0.467828	  0.052481	
10.6875	  0.582874	  0.443207	  0.053719	
10.75	  0.578786	  0.417503	  0.057420	
10.8125	  0.587220	  0.401840	  0.062237	
10.875	  0.620566	  0.404377	  0.066988	
10.9375	  0.681399	  0.427562	  0.071336	
11	  0.750849	  0.463190	  0.075389	
11.0625	  0.794377	  0.493261	  0.078710	
11.125	  0.791080	  0.503710	  0.079927	
11.1875	  0.751015	  0.497445	  0.078242	
11.25	  0.699759	  0.487399	  0.074602	
11.3125	  0.657057	  0.480105	  0.070452	
11.375	  0.630128	  0.474081	  0.066488	
11.4375	  0.615224	  0.468092	  0.063034	
11.5	  0.603996	  0.462742	  0.060402	
11.5625	  0.593112	  0.457916	  0.058478	
11.625	  0.588476	  0.451805	  0.056777	
11.6875	  0.597539	  0.441315	  0.055271	
11.75	  0.618296	  0.424464	  0.054539	
11.8125	  0.641093	  0.401369	  0.054783	
11.875	  0.656029	  0.372302	  0.055446	
11.9375	  0.650570	  0.336496	  0.056197	
12	  0.609075	  0.291529	  0.058310	
12.0625	  0.524001	  0.235059	  0.065823	
12.125	  0.403922	  0.171530	  0.083307	
12.1875	  0.270391	  0.113920	  0.108528	
12.25	  0.149753	  0.073860	  0.130910	
12.3125	  0.062440	  0.053053	  0.142514	
12.375	  0.014019	  0.045464	  0.144861	
12.4375	 -0.004066	  0.043107	  0.140852	
12.5	 -0.005548	  0.039878	  0.128252	
12.5625	 -0.001381	  0.033775	  0.105597	
12.625	  0.002730	  0.026342	  0.077766	
12.6875	  0.005102	  0.019925	  0.051647	
12.75	  0.005989	  0.015794	  0.030619	
12.8125	  0.006122	  0.013958	  0.015469	
12.875	  0.006062	  0.013637	  0.006443	
12.9375	  0.005986	  0.013823	  0.002625	
13	  0.005757	  0.013747	  0.001882	
13.0625	  0.005223	  0.013155	  0.002254	
13.125	  0.004452	  0.012297	  0.002726	
13.1875	  0.003687	  0.011636	  0.003038	
13.25	  0.003191	  0.011478	  0.003237	
13.3125	  0.003271	  0.011839	  0.003374	
13.375	  0.004395	  0.012590	  0.003457	
13.4375	  0.007018	  0.013639	  0.003558	
13.5	  0.010884	  0.014851	  0.003818	
13.5625	  0.014382	  0.015753	  0.004329	
13.625	  0.015422	  0.015776	  0.005001	
13.6875	  0.013424	  0.014985	  0.005570	
13.75	  0.009848	  0.014085	  0.005793	
13.8125	  0.006624	  0.013590	  0.005633	
13.875	  0.004706	  0.013439	  0.005216	
13.9375	  0.004015	  0.013391	  0.004718	
14	  0.004045	  0.013352	  0.004312	
14.0625	  0.004299	  0.013349	  0.004095	
14.125	  0.004452	  0.013445	  0.004045	
14.1875	  0.004388	  0.013697	  0.004062	
14.25	  0.004160	  0.014082	  0.004020	
14.3125	  0.003882	  0.014489	  0.003845	
14.375	  0.003644	  0.014793	  0.003568	
14.4375	  0.003477	  0.014945	  0.003275	
14.5	  0.003362	  0.014995	  0.003041	
14.5625	  0.003269	  0.015034	  0.002879	
14.625	  0.003176	  0.015100	  0.002746	
14.6875	  0.003064	  0.015155	  0.002580	
14.75	  0.002922	  0.015142	  0.002348	
14.8125	  0.002756	  0.015057	  0.002058	
